<svg width="24" height="24" viewBox="0 0 24 24" fill="none" xmlns="http://www.w3.org/2000/svg">
<path d="M17.073 12.5H5.50001C5.35801 12.5 5.23901 12.4523 5.14301 12.357C5.04701 12.2617 4.99934 12.1427 5.00001 12C5.00067 11.8573 5.04834 11.7383 5.14301 11.643C5.23767 11.5477 5.35667 11.5 5.50001 11.5H17.073L13.338 7.76601C13.2407 7.66801 13.19 7.55301 13.186 7.42101C13.182 7.28901 13.2327 7.16801 13.338 7.05801C13.4487 6.94734 13.5677 6.89134 13.695 6.89001C13.8223 6.88867 13.9413 6.94268 14.052 7.05201L18.435 11.435C18.5217 11.5217 18.5827 11.6107 18.618 11.702C18.6533 11.7933 18.671 11.8927 18.671 12C18.671 12.1073 18.6533 12.2067 18.618 12.298C18.5827 12.3893 18.5217 12.4787 18.435 12.566L14.052 16.948C13.9547 17.0453 13.839 17.0963 13.705 17.101C13.571 17.1057 13.4487 17.0527 13.338 16.942C13.2313 16.832 13.1773 16.714 13.176 16.588C13.1747 16.462 13.2287 16.344 13.338 16.234L17.073 12.5Z" fill="black"/>
</svg>
