<svg width="24" height="24" viewBox="0 0 24 24" fill="none" xmlns="http://www.w3.org/2000/svg">
<path d="M18.4365 20.936H5.5625C4.89946 20.936 4.26357 20.6726 3.79473 20.2038C3.32589 19.7349 3.0625 19.0991 3.0625 18.436V5.56201C3.0625 4.89897 3.32589 4.26309 3.79473 3.79424C4.26357 3.3254 4.89946 3.06201 5.5625 3.06201H18.4365C19.0995 3.06201 19.7354 3.3254 20.2043 3.79424C20.6731 4.26309 20.9365 4.89897 20.9365 5.56201V18.436C20.9365 19.0991 20.6731 19.7349 20.2043 20.2038C19.7354 20.6726 19.0995 20.936 18.4365 20.936ZM5.5625 4.06201C5.16468 4.06201 4.78314 4.22005 4.50184 4.50135C4.22054 4.78266 4.0625 5.16419 4.0625 5.56201V18.436C4.0625 18.8338 4.22054 19.2154 4.50184 19.4967C4.78314 19.778 5.16468 19.936 5.5625 19.936H18.4365C18.8343 19.936 19.2159 19.778 19.4972 19.4967C19.7785 19.2154 19.9365 18.8338 19.9365 18.436V5.56201C19.9365 5.16419 19.7785 4.78266 19.4972 4.50135C19.2159 4.22005 18.8343 4.06201 18.4365 4.06201H5.5625Z" fill="black" fill-opacity="0.75"/>
<path d="M12.4993 14.544C12.4993 14.6766 12.4466 14.8038 12.3529 14.8976C12.2591 14.9913 12.1319 15.044 11.9993 15.044C11.8667 15.044 11.7395 14.9913 11.6457 14.8976C11.552 14.8038 11.4993 14.6766 11.4993 14.544V6.54401C11.4993 6.4114 11.552 6.28422 11.6457 6.19045C11.7395 6.09668 11.8667 6.04401 11.9993 6.04401C12.1319 6.04401 12.2591 6.09668 12.3529 6.19045C12.4466 6.28422 12.4993 6.4114 12.4993 6.54401V14.544ZM16.7163 12.453C16.7163 12.5856 16.6636 12.7128 16.5698 12.8066C16.4761 12.9003 16.3489 12.953 16.2163 12.953C16.0837 12.953 15.9565 12.9003 15.8627 12.8066C15.769 12.7128 15.7163 12.5856 15.7163 12.453V6.54401C15.7163 6.4114 15.769 6.28422 15.8627 6.19045C15.9565 6.09668 16.0837 6.04401 16.2163 6.04401C16.3489 6.04401 16.4761 6.09668 16.5698 6.19045C16.6636 6.28422 16.7163 6.4114 16.7163 6.54401V12.453ZM8.2793 6.54401C8.2793 6.4114 8.22662 6.28422 8.13285 6.19045C8.03908 6.09668 7.91191 6.04401 7.7793 6.04401C7.64669 6.04401 7.51951 6.09668 7.42574 6.19045C7.33197 6.28422 7.2793 6.4114 7.2793 6.54401V10.544C7.2793 10.6766 7.33197 10.8038 7.42574 10.8976C7.51951 10.9913 7.64669 11.044 7.7793 11.044C7.91191 11.044 8.03908 10.9913 8.13285 10.8976C8.22662 10.8038 8.2793 10.6766 8.2793 10.544V6.54401Z" fill="black" fill-opacity="0.75"/>
</svg>
