<svg width="25" height="26" viewBox="0 0 25 26" fill="none" xmlns="http://www.w3.org/2000/svg">
<path d="M6.64822 14.5343H13.8079V13.5114H6.64822V14.5343ZM6.64822 11.4658H17.8992V10.443H6.64822V11.4658ZM6.64822 8.39735H17.8992V7.37454H6.64822V8.39735ZM3.06836 21.2613V5.44755C3.06836 4.97637 3.22621 4.58327 3.54192 4.26824C3.85763 3.95321 4.25039 3.79536 4.72021 3.79468H19.8272C20.2977 3.79468 20.6905 3.95253 21.0055 4.26824C21.3205 4.58395 21.4784 4.97705 21.4791 5.44755V16.4623C21.4791 16.9328 21.3212 17.3259 21.0055 17.6416C20.6898 17.9573 20.297 18.1148 19.8272 18.1141H6.21557L3.06836 21.2613ZM5.77882 17.0913H19.8272C19.984 17.0913 20.1283 17.0258 20.2599 16.8949C20.3915 16.764 20.4569 16.6198 20.4562 16.4623V5.44653C20.4562 5.28969 20.3908 5.14548 20.2599 5.01388C20.1289 4.88227 19.9847 4.81681 19.8272 4.81749H4.72021C4.56338 4.81749 4.41916 4.88295 4.28756 5.01388C4.15595 5.1448 4.09049 5.28901 4.09118 5.44653V18.7738L5.77882 17.0913Z" fill="black"/>
</svg>
