<svg width="18" height="12" viewBox="0 0 18 12" fill="none" xmlns="http://www.w3.org/2000/svg">
<path d="M1.11448 6.006L5.35448 10.246C5.44782 10.3393 5.49782 10.4543 5.50448 10.591C5.51115 10.7263 5.46115 10.8473 5.35448 10.954C5.24782 11.0607 5.12982 11.114 5.00048 11.114C4.87115 11.114 4.75315 11.0607 4.64648 10.954L0.258484 6.565C0.171151 6.47833 0.109818 6.38934 0.0744843 6.298C0.039151 6.20734 0.0214844 6.108 0.0214844 6C0.0214844 5.892 0.039151 5.79267 0.0744843 5.702C0.109818 5.61133 0.171151 5.52234 0.258484 5.435L4.64648 1.046C4.74382 0.948668 4.85948 0.896668 4.99348 0.890001C5.12748 0.883335 5.24948 0.935335 5.35948 1.046C5.46948 1.15667 5.52482 1.27567 5.52548 1.403C5.52615 1.53033 5.47115 1.64933 5.36048 1.76L1.11448 6.006ZM16.8875 5.994L12.6475 1.754C12.5535 1.66067 12.5035 1.546 12.4975 1.41C12.4915 1.274 12.5415 1.15267 12.6475 1.046C12.7535 0.939335 12.8712 0.886002 13.0005 0.886002C13.1298 0.886002 13.2478 0.939335 13.3545 1.046L17.7425 5.435C17.8298 5.52167 17.8912 5.61067 17.9265 5.702C17.9618 5.79333 17.9795 5.89267 17.9795 6C17.9795 6.10733 17.9618 6.20667 17.9265 6.298C17.8912 6.38934 17.8298 6.47867 17.7425 6.566L13.3545 10.954C13.2572 11.0513 13.1425 11.1023 13.0105 11.107C12.8785 11.111 12.7572 11.058 12.6465 10.948C12.5358 10.838 12.4808 10.719 12.4815 10.591C12.4815 10.4637 12.5365 10.3447 12.6465 10.234L16.8875 5.994Z" fill="black"/>
</svg>
