<svg width="24" height="24" viewBox="0 0 24 24" fill="none" xmlns="http://www.w3.org/2000/svg">
<path d="M5 4C5 3.73478 5.10536 3.48043 5.29289 3.29289C5.48043 3.10536 5.73478 3 6 3H12V8C12 8.53043 12.2107 9.03914 12.5858 9.41421C12.9609 9.78929 13.4696 10 14 10H19V20C19 20.2652 18.8946 20.5196 18.7071 20.7071C18.5196 20.8946 18.2652 21 18 21H6C5.73478 21 5.48043 20.8946 5.29289 20.7071C5.10536 20.5196 5 20.2652 5 20V4ZM19.998 9.54C20.0023 9.48631 19.9979 9.43229 19.985 9.38C19.9314 8.9363 19.7307 8.52333 19.415 8.207L13.793 2.586C13.4771 2.27011 13.0645 2.06909 12.621 2.015C12.5681 2.00186 12.5133 1.99747 12.459 2.002L12.38 2H6C5.46957 2 4.96086 2.21071 4.58579 2.58579C4.21071 2.96086 4 3.46957 4 4V20C4 20.5304 4.21071 21.0391 4.58579 21.4142C4.96086 21.7893 5.46957 22 6 22H18C18.5304 22 19.0391 21.7893 19.4142 21.4142C19.7893 21.0391 20 20.5304 20 20V9.621L19.998 9.541M13 3.217C13.03 3.241 13.0587 3.26667 13.086 3.294L18.707 8.915C18.7337 8.94167 18.7593 8.97033 18.784 9.001H14C13.7348 9.001 13.4804 8.89564 13.2929 8.70811C13.1054 8.52057 13 8.26622 13 8.001V3.217Z" fill="black"/>
</svg>
