<svg width="18" height="20" viewBox="0 0 18 20" fill="none" xmlns="http://www.w3.org/2000/svg">
<g opacity="0.75">
<path d="M3.64575 4.16669H13.1249C13.7051 4.16669 14.2615 4.43008 14.6717 4.89892C15.082 5.36776 15.3124 6.00365 15.3124 6.66669V14.1667C15.3124 14.8297 15.082 15.4656 14.6717 15.9345C14.2615 16.4033 13.7051 16.6667 13.1249 16.6667H3.64575C3.06559 16.6667 2.50919 16.4033 2.09896 15.9345C1.68872 15.4656 1.45825 14.8297 1.45825 14.1667V6.66669C1.45825 6.00365 1.68872 5.36776 2.09896 4.89892C2.50919 4.43008 3.06559 4.16669 3.64575 4.16669ZM3.64575 5.00002C3.28117 5.00002 2.96034 5.14169 2.71242 5.39169L8.38533 9.58335L14.0583 5.39169C13.8103 5.14169 13.4895 5.00002 13.1249 5.00002H3.64575ZM8.38533 10.5917L2.28221 6.06669C2.22388 6.25002 2.18742 6.45835 2.18742 6.66669V14.1667C2.18742 14.6087 2.34106 15.0326 2.61455 15.3452C2.88804 15.6578 3.25898 15.8334 3.64575 15.8334H13.1249C13.5117 15.8334 13.8826 15.6578 14.1561 15.3452C14.4296 15.0326 14.5833 14.6087 14.5833 14.1667V6.66669C14.5833 6.45835 14.5468 6.25002 14.4885 6.06669L8.38533 10.5917Z" fill="black"/>
</g>
</svg>
