<svg width="20" height="20" viewBox="0 0 20 20" fill="none" xmlns="http://www.w3.org/2000/svg">
<path d="M3.76021 12L7.09321 15.136C7.14101 15.181 7.17947 15.2351 7.2064 15.295C7.23332 15.3549 7.24819 15.4195 7.25014 15.4852C7.25209 15.5508 7.24109 15.6162 7.21776 15.6776C7.19444 15.739 7.15925 15.7952 7.11421 15.843C7.06917 15.8908 7.01515 15.9293 6.95524 15.9562C6.89534 15.9831 6.83071 15.998 6.76506 15.9999C6.69941 16.0019 6.63402 15.9909 6.57262 15.9676C6.51122 15.9442 6.45501 15.909 6.40721 15.864L2.15721 11.864C2.10757 11.8173 2.06802 11.7608 2.04098 11.6982C2.01395 11.6357 2 11.5682 2 11.5C2 11.4318 2.01395 11.3643 2.04098 11.3018C2.06802 11.2392 2.10757 11.1827 2.15721 11.136L6.40721 7.136C6.45501 7.09096 6.51122 7.05577 6.57262 7.03245C6.63402 7.00913 6.69941 6.99813 6.76506 7.00008C6.83071 7.00203 6.89534 7.01689 6.95524 7.04381C7.01515 7.07074 7.06917 7.1092 7.11421 7.157C7.15925 7.2048 7.19444 7.26101 7.21776 7.32241C7.24109 7.38381 7.25209 7.4492 7.25014 7.51485C7.24819 7.5805 7.23332 7.64512 7.2064 7.70503C7.17947 7.76494 7.14101 7.81896 7.09321 7.864L3.76021 11H15.0002C15.5306 11 16.0394 10.7893 16.4144 10.4142C16.7895 10.0391 17.0002 9.53043 17.0002 9V4.5C17.0002 4.36739 17.0529 4.24021 17.1467 4.14645C17.2404 4.05268 17.3676 4 17.5002 4C17.6328 4 17.76 4.05268 17.8538 4.14645C17.9475 4.24021 18.0002 4.36739 18.0002 4.5V9C18.0002 9.79565 17.6841 10.5587 17.1215 11.1213C16.5589 11.6839 15.7959 12 15.0002 12H3.76021Z" fill="black"/>
</svg>
