<svg width="17" height="17" viewBox="0 0 17 17" fill="none" xmlns="http://www.w3.org/2000/svg">
<path d="M11.9004 8.71252C11.9004 8.43073 12.0123 8.16048 12.2116 7.96122C12.4108 7.76197 12.6811 7.65002 12.9629 7.65002C13.2447 7.65002 13.5149 7.76197 13.7142 7.96122C13.9135 8.16048 14.0254 8.43073 14.0254 8.71252C14.0254 8.99432 13.9135 9.26457 13.7142 9.46383C13.5149 9.66308 13.2447 9.77502 12.9629 9.77502C12.6811 9.77502 12.4108 9.66308 12.2116 9.46383C12.0123 9.26457 11.9004 8.99432 11.9004 8.71252ZM7.65039 8.71252C7.65039 8.43073 7.76233 8.16048 7.96159 7.96122C8.16085 7.76197 8.4311 7.65002 8.71289 7.65002C8.99468 7.65002 9.26493 7.76197 9.46419 7.96122C9.66345 8.16048 9.77539 8.43073 9.77539 8.71252C9.77539 8.99432 9.66345 9.26457 9.46419 9.46383C9.26493 9.66308 8.99468 9.77502 8.71289 9.77502C8.4311 9.77502 8.16085 9.66308 7.96159 9.46383C7.76233 9.26457 7.65039 8.99432 7.65039 8.71252ZM3.40039 8.71252C3.40039 8.43073 3.51233 8.16048 3.71159 7.96122C3.91085 7.76197 4.1811 7.65002 4.46289 7.65002C4.74468 7.65002 5.01493 7.76197 5.21419 7.96122C5.41345 8.16048 5.52539 8.43073 5.52539 8.71252C5.52539 8.99432 5.41345 9.26457 5.21419 9.46383C5.01493 9.66308 4.74468 9.77502 4.46289 9.77502C4.1811 9.77502 3.91085 9.66308 3.71159 9.46383C3.51233 9.26457 3.40039 8.99432 3.40039 8.71252Z" fill="black"/>
</svg>
