<svg width="25" height="28" viewBox="0 0 25 28" fill="none" xmlns="http://www.w3.org/2000/svg">
<path d="M17.5 14.2361C17.5 13.7757 17.6646 13.3341 17.9576 13.0085C18.2507 12.6829 18.6481 12.5 19.0625 12.5C19.4769 12.5 19.8743 12.6829 20.1674 13.0085C20.4604 13.3341 20.625 13.7757 20.625 14.2361C20.625 14.6966 20.4604 15.1381 20.1674 15.4637C19.8743 15.7893 19.4769 15.9722 19.0625 15.9722C18.6481 15.9722 18.2507 15.7893 17.9576 15.4637C17.6646 15.1381 17.5 14.6966 17.5 14.2361ZM11.25 14.2361C11.25 13.7757 11.4146 13.3341 11.7076 13.0085C12.0007 12.6829 12.3981 12.5 12.8125 12.5C13.2269 12.5 13.6243 12.6829 13.9174 13.0085C14.2104 13.3341 14.375 13.7757 14.375 14.2361C14.375 14.6966 14.2104 15.1381 13.9174 15.4637C13.6243 15.7893 13.2269 15.9722 12.8125 15.9722C12.3981 15.9722 12.0007 15.7893 11.7076 15.4637C11.4146 15.1381 11.25 14.6966 11.25 14.2361ZM5 14.2361C5 13.7757 5.16462 13.3341 5.45765 13.0085C5.75067 12.6829 6.1481 12.5 6.5625 12.5C6.9769 12.5 7.37433 12.6829 7.66735 13.0085C7.96038 13.3341 8.125 13.7757 8.125 14.2361C8.125 14.6966 7.96038 15.1381 7.66735 15.4637C7.37433 15.7893 6.9769 15.9722 6.5625 15.9722C6.1481 15.9722 5.75067 15.7893 5.45765 15.4637C5.16462 15.1381 5 14.6966 5 14.2361Z" fill="black" fill-opacity="0.75"/>
</svg>
