<svg width="40" height="40" viewBox="0 0 40 40" fill="none" xmlns="http://www.w3.org/2000/svg">
<circle cx="20" cy="20" r="20" fill="#3290EC"/>
<path d="M20 19C18.9 19 17.9583 18.6083 17.175 17.825C16.3917 17.0417 16 16.1 16 15C16 13.9 16.3917 12.9583 17.175 12.175C17.9583 11.3917 18.9 11 20 11C21.1 11 22.0417 11.3917 22.825 12.175C23.6083 12.9583 24 13.9 24 15C24 16.1 23.6083 17.0417 22.825 17.825C22.0417 18.6083 21.1 19 20 19ZM12 27V24.2C12 23.6333 12.146 23.1127 12.438 22.638C12.73 22.1633 13.1173 21.8007 13.6 21.55C14.6333 21.0333 15.6833 20.646 16.75 20.388C17.8167 20.13 18.9 20.0007 20 20C21.1 19.9993 22.1833 20.1287 23.25 20.388C24.3167 20.6473 25.3667 21.0347 26.4 21.55C26.8833 21.8 27.271 22.1627 27.563 22.638C27.855 23.1133 28.0007 23.634 28 24.2V27H12Z" fill="black"/>
</svg>
