<svg width="42" height="40" viewBox="0 0 42 40" fill="none" xmlns="http://www.w3.org/2000/svg">
<path d="M32.9173 12.4158H30.4173V14.9158H29.584V12.4158H27.084V11.5825H29.584V9.08249H30.4173V11.5825H32.9173V12.4158Z" fill="black"/>
<path d="M20.25 14.2857C18.875 14.2857 17.6979 13.8194 16.7188 12.8869C15.7396 11.9544 15.25 10.8333 15.25 9.52381C15.25 8.21428 15.7396 7.09325 16.7188 6.16071C17.6979 5.22817 18.875 4.7619 20.25 4.7619C21.625 4.7619 22.8021 5.22817 23.7812 6.16071C24.7604 7.09325 25.25 8.21428 25.25 9.52381C25.25 10.8333 24.7604 11.9544 23.7812 12.8869C22.8021 13.8194 21.625 14.2857 20.25 14.2857ZM10.25 23.8095V20.4762C10.25 19.8016 10.4325 19.1817 10.7975 18.6167C11.1625 18.0516 11.6467 17.6198 12.25 17.3214C13.5417 16.7063 14.8542 16.2452 16.1875 15.9381C17.5208 15.6309 18.875 15.477 20.25 15.4762C21.625 15.4754 22.9792 15.6294 24.3125 15.9381C25.6458 16.2468 26.9583 16.7079 28.25 17.3214C28.8542 17.619 29.3387 18.0508 29.7038 18.6167C30.0688 19.1825 30.2508 19.8024 30.25 20.4762V23.8095H10.25Z" fill="black" fill-opacity="0.75"/>
</svg>
