<svg width="19" height="15" viewBox="0 0 19 15" fill="none" xmlns="http://www.w3.org/2000/svg">
<path d="M13.333 10H14.9997V11.6667H13.333V10ZM14.9997 6.66669H13.333V8.33335H14.9997V6.66669Z" fill="black"/>
<path fill-rule="evenodd" clip-rule="evenodd" d="M10 3.33333H18.3333V15H0V0H10V3.33333ZM5.83333 1.66667H8.33333V3.33333H5.83333V1.66667ZM8.33333 13.3333V11.6667H5.83333V13.3333H8.33333ZM8.33333 10V8.33333H5.83333V10H8.33333ZM8.33333 6.66667V5H5.83333V6.66667H8.33333ZM16.6667 13.3333V5H10V6.66667H11.6667V8.33333H10V10H11.6667V11.6667H10V13.3333H16.6667ZM1.66667 13.3333V11.6667H4.16667V13.3333H1.66667ZM1.66667 10H4.16667V8.33333H1.66667V10ZM4.16667 6.66667V5H1.66667V6.66667H4.16667ZM1.66667 3.33333H4.16667V1.66667H1.66667V3.33333Z" fill="black"/>
</svg>
