<svg width="20" height="20" viewBox="0 0 20 20" fill="none" xmlns="http://www.w3.org/2000/svg">
<g opacity="0.75">
<path d="M13.3333 6.66669C13.9963 6.66669 14.6322 6.93008 15.101 7.39892C15.5699 7.86776 15.8333 8.50365 15.8333 9.16669V15.8334C15.8333 16.4964 15.5699 17.1323 15.101 17.6011C14.6322 18.07 13.9963 18.3334 13.3333 18.3334H5.83325C5.17021 18.3334 4.53433 18.07 4.06549 17.6011C3.59664 17.1323 3.33325 16.4964 3.33325 15.8334V9.16669C3.33325 8.50365 3.59664 7.86776 4.06549 7.39892C4.53433 6.93008 5.17021 6.66669 5.83325 6.66669H12.4999V5.41669C12.4999 4.64314 12.1926 3.90127 11.6456 3.35429C11.0987 2.80731 10.3568 2.50002 9.58325 2.50002C8.11659 2.50002 6.89992 3.58335 6.69992 5.00002H5.85825C6.06659 3.12502 7.64992 1.66669 9.58325 1.66669C11.6666 1.66669 13.3333 3.33335 13.3333 5.41669V6.66669ZM5.83325 7.50002C5.39122 7.50002 4.9673 7.67562 4.65474 7.98818C4.34218 8.30074 4.16659 8.72466 4.16659 9.16669V15.8334C4.16659 16.2754 4.34218 16.6993 4.65474 17.0119C4.9673 17.3244 5.39122 17.5 5.83325 17.5H13.3333C13.7753 17.5 14.1992 17.3244 14.5118 17.0119C14.8243 16.6993 14.9999 16.2754 14.9999 15.8334V9.16669C14.9999 8.72466 14.8243 8.30074 14.5118 7.98818C14.1992 7.67562 13.7753 7.50002 13.3333 7.50002H5.83325ZM9.58325 11.6667C9.25173 11.6667 8.93379 11.7984 8.69937 12.0328C8.46495 12.2672 8.33325 12.5852 8.33325 12.9167C8.33325 13.2482 8.46495 13.5661 8.69937 13.8006C8.93379 14.035 9.25173 14.1667 9.58325 14.1667C9.91477 14.1667 10.2327 14.035 10.4671 13.8006C10.7016 13.5661 10.8333 13.2482 10.8333 12.9167C10.8333 12.5852 10.7016 12.2672 10.4671 12.0328C10.2327 11.7984 9.91477 11.6667 9.58325 11.6667ZM9.58325 10.8334C10.1358 10.8334 10.6657 11.0528 11.0564 11.4435C11.4471 11.8342 11.6666 12.3642 11.6666 12.9167C11.6666 13.4692 11.4471 13.9991 11.0564 14.3898C10.6657 14.7805 10.1358 15 9.58325 15C9.03072 15 8.50081 14.7805 8.11011 14.3898C7.71941 13.9991 7.49992 13.4692 7.49992 12.9167C7.49992 12.3642 7.71941 11.8342 8.11011 11.4435C8.50081 11.0528 9.03072 10.8334 9.58325 10.8334Z" fill="black"/>
</g>
</svg>
