<svg width="27" height="30" viewBox="0 0 27 30" fill="none" xmlns="http://www.w3.org/2000/svg">
<path d="M18.9004 15.375C18.9004 14.8777 19.0782 14.4008 19.3946 14.0492C19.7111 13.6975 20.1403 13.5 20.5879 13.5C21.0354 13.5 21.4647 13.6975 21.7811 14.0492C22.0976 14.4008 22.2754 14.8777 22.2754 15.375C22.2754 15.8723 22.0976 16.3492 21.7811 16.7008C21.4647 17.0525 21.0354 17.25 20.5879 17.25C20.1403 17.25 19.7111 17.0525 19.3946 16.7008C19.0782 16.3492 18.9004 15.8723 18.9004 15.375ZM12.1504 15.375C12.1504 14.8777 12.3282 14.4008 12.6446 14.0492C12.9611 13.6975 13.3903 13.5 13.8379 13.5C14.2854 13.5 14.7147 13.6975 15.0311 14.0492C15.3476 14.4008 15.5254 14.8777 15.5254 15.375C15.5254 15.8723 15.3476 16.3492 15.0311 16.7008C14.7147 17.0525 14.2854 17.25 13.8379 17.25C13.3903 17.25 12.9611 17.0525 12.6446 16.7008C12.3282 16.3492 12.1504 15.8723 12.1504 15.375ZM5.40039 15.375C5.40039 14.8777 5.57818 14.4008 5.89465 14.0492C6.21112 13.6975 6.64034 13.5 7.08789 13.5C7.53544 13.5 7.96467 13.6975 8.28113 14.0492C8.5976 14.4008 8.77539 14.8777 8.77539 15.375C8.77539 15.8723 8.5976 16.3492 8.28113 16.7008C7.96467 17.0525 7.53544 17.25 7.08789 17.25C6.64034 17.25 6.21112 17.0525 5.89465 16.7008C5.57818 16.3492 5.40039 15.8723 5.40039 15.375Z" fill="black" fill-opacity="0.75"/>
</svg>
