<svg width="20" height="20" viewBox="0 0 20 20" fill="none" xmlns="http://www.w3.org/2000/svg">
<circle cx="10" cy="10" r="10" fill="#3290EC"/>
<path d="M10.125 9.14286C9.4375 9.14286 8.84896 8.90972 8.35938 8.44345C7.86979 7.97718 7.625 7.41667 7.625 6.7619C7.625 6.10714 7.86979 5.54663 8.35938 5.08036C8.84896 4.61409 9.4375 4.38095 10.125 4.38095C10.8125 4.38095 11.401 4.61409 11.8906 5.08036C12.3802 5.54663 12.625 6.10714 12.625 6.7619C12.625 7.41667 12.3802 7.97718 11.8906 8.44345C11.401 8.90972 10.8125 9.14286 10.125 9.14286ZM5.125 13.9048V12.2381C5.125 11.9008 5.21625 11.5909 5.39875 11.3083C5.58125 11.0258 5.82333 10.8099 6.125 10.6607C6.77083 10.3532 7.42708 10.1226 8.09375 9.96905C8.76042 9.81547 9.4375 9.73849 10.125 9.73809C10.8125 9.7377 11.4896 9.81468 12.1562 9.96905C12.8229 10.1234 13.4792 10.354 14.125 10.6607C14.4271 10.8095 14.6694 11.0254 14.8519 11.3083C15.0344 11.5913 15.1254 11.9012 15.125 12.2381V13.9048H5.125Z" fill="black" fill-opacity="0.75"/>
</svg>
