<svg width="20" height="20" viewBox="0 0 20 20" fill="none" xmlns="http://www.w3.org/2000/svg">
<path d="M3.84667 16.6666C3.46278 16.6666 3.1425 16.5383 2.88583 16.2816C2.62917 16.025 2.50056 15.7044 2.5 15.32V7.17998C2.5 6.79609 2.62861 6.47581 2.88583 6.21915C3.14306 5.96248 3.46306 5.83387 3.84583 5.83331H7.5V4.67915C7.5 4.29581 7.62861 3.97554 7.88583 3.71831C8.14306 3.46109 8.46333 3.33276 8.84667 3.33331H11.1542C11.5375 3.33331 11.8578 3.46165 12.115 3.71831C12.3722 3.97498 12.5006 4.29526 12.5 4.67915V5.83331H16.1542C16.5375 5.83331 16.8575 5.96193 17.1142 6.21915C17.3708 6.47637 17.4994 6.79665 17.5 7.17998V15.3208C17.5 15.7041 17.3714 16.0244 17.1142 16.2816C16.8569 16.5389 16.5369 16.6672 16.1542 16.6666H3.84667ZM3.84667 15.8333H16.1542C16.2819 15.8333 16.3994 15.78 16.5067 15.6733C16.6139 15.5666 16.6672 15.4489 16.6667 15.32V7.17998C16.6667 7.05165 16.6133 6.93387 16.5067 6.82665C16.4 6.71943 16.2825 6.66609 16.1542 6.66665H3.84583C3.71806 6.66665 3.60056 6.71998 3.49333 6.82665C3.38611 6.93332 3.33278 7.05109 3.33333 7.17998V15.3208C3.33333 15.4486 3.38667 15.5661 3.49333 15.6733C3.6 15.7805 3.7175 15.8339 3.84583 15.8333M8.33333 5.83331H11.6667V4.67915C11.6667 4.55137 11.6133 4.43387 11.5067 4.32665C11.4 4.21943 11.2825 4.16609 11.1542 4.16665H8.84583C8.71806 4.16665 8.60056 4.21998 8.49333 4.32665C8.38611 4.43331 8.33278 4.55081 8.33333 4.67915V5.83331Z" fill="black"/>
</svg>
