<svg width="25" height="25" viewBox="0 0 25 25" fill="none" xmlns="http://www.w3.org/2000/svg">
<g opacity="0.75">
<path d="M20.8652 21.6563C21.3444 22.1354 22.084 21.3958 21.6048 20.9271L17.6986 17.0104C19.0692 15.4945 19.8266 13.5228 19.8236 11.4792C19.8236 6.90625 16.1048 3.1875 11.5319 3.1875C6.95898 3.1875 3.24023 6.90625 3.24023 11.4792C3.24023 16.0521 6.95898 19.7708 11.5319 19.7708C13.5944 19.7708 15.5007 19.0104 16.959 17.75L20.8652 21.6563ZM4.28086 11.4792C4.28086 7.47917 7.54128 4.22917 11.5309 4.22917C15.5309 4.22917 18.7809 7.47917 18.7809 11.4792C18.7809 15.4792 15.5309 18.7292 11.5309 18.7292C7.54128 18.7292 4.28086 15.4792 4.28086 11.4792Z" fill="black"/>
</g>
</svg>
