<svg width="20" height="20" viewBox="0 0 20 20" fill="none" xmlns="http://www.w3.org/2000/svg">
<path fill-rule="evenodd" clip-rule="evenodd" d="M10 8.75H14.375C14.5408 8.75 14.6997 8.81585 14.8169 8.93306C14.9342 9.05027 15 9.20924 15 9.375C15 9.54076 14.9342 9.69973 14.8169 9.81694C14.6997 9.93415 14.5408 10 14.375 10H10V14.375C10 14.5408 9.93415 14.6997 9.81694 14.8169C9.69973 14.9342 9.54076 15 9.375 15C9.20924 15 9.05027 14.9342 8.93306 14.8169C8.81585 14.6997 8.75 14.5408 8.75 14.375V10H4.375C4.20924 10 4.05027 9.93415 3.93306 9.81694C3.81585 9.69973 3.75 9.54076 3.75 9.375C3.75 9.20924 3.81585 9.05027 3.93306 8.93306C4.05027 8.81585 4.20924 8.75 4.375 8.75H8.75V4.375C8.75 4.20924 8.81585 4.05027 8.93306 3.93306C9.05027 3.81585 9.20924 3.75 9.375 3.75C9.54076 3.75 9.69973 3.81585 9.81694 3.93306C9.93415 4.05027 10 4.20924 10 4.375V8.75ZM9.375 0C14.545 0 18.75 4.205 18.75 9.375C18.75 14.545 14.545 18.75 9.375 18.75C4.205 18.75 0 14.545 0 9.375C0 4.205 4.205 0 9.375 0ZM9.375 1.1025C7.181 1.1025 5.07685 1.97406 3.52546 3.52546C1.97406 5.07685 1.1025 7.181 1.1025 9.375C1.1025 11.569 1.97406 13.6731 3.52546 15.2245C5.07685 16.7759 7.181 17.6475 9.375 17.6475C11.569 17.6475 13.6731 16.7759 15.2245 15.2245C16.7759 13.6731 17.6475 11.569 17.6475 9.375C17.6475 7.181 16.7759 5.07685 15.2245 3.52546C13.6731 1.97406 11.569 1.1025 9.375 1.1025Z" fill="black"/>
</svg>
